<svg xmlns="http://www.w3.org/2000/svg" width="10" height="10" viewBox="0 0 10 10" fill="none">
  <path d="M5.00016 8.75002C4.47389 8.30112 3.98607 7.80899 3.54183 7.27877C2.87516 6.48252 2.0835 5.29669 2.0835 4.16669C2.08291 2.9865 2.7936 1.92227 3.88394 1.4706C4.97428 1.01894 6.22936 1.26887 7.0635 2.10377C7.61202 2.64986 7.91929 3.39268 7.91685 4.16669C7.91685 5.29669 7.12516 6.48252 6.4585 7.27877C6.01425 7.80899 5.52644 8.30112 5.00016 8.75002ZM5.00016 2.91669C4.55358 2.91669 4.14092 3.15494 3.91763 3.54169C3.69434 3.92844 3.69434 4.40494 3.91763 4.79169C4.14092 5.17844 4.55358 5.41669 5.00016 5.41669C5.69052 5.41669 6.25016 4.85704 6.25016 4.16669C6.25016 3.47633 5.69052 2.91669 5.00016 2.91669Z" fill="#D9DFE8"/>
</svg> 