<svg xmlns="http://www.w3.org/2000/svg" width="16" height="12" viewBox="0 0 16 12" fill="none">
    <g clip-path="url(#clip0_330_10998)">
    <mask id="mask0_330_10998" style="mask-type:alpha" maskUnits="userSpaceOnUse" x="-2" y="-1" width="20" height="14">
        <path d="M15.5554 -1H0.444282C-0.537558 -1 -1.3335 -0.164265 -1.3335 0.866667V11.1333C-1.3335 12.1643 -0.537558 13 0.444282 13H15.5554C16.5372 13 17.3332 12.1643 17.3332 11.1333V0.866667C17.3332 -0.164265 16.5372 -1 15.5554 -1Z" fill="white"/>
    </mask>
    <g mask="url(#mask0_330_10998)">
        <path d="M15.5554 -1H0.444282C-0.537558 -1 -1.3335 -0.164265 -1.3335 0.866667V11.1333C-1.3335 12.1643 -0.537558 13 0.444282 13H15.5554C16.5372 13 17.3332 12.1643 17.3332 11.1333V0.866667C17.3332 -0.164265 16.5372 -1 15.5554 -1Z" fill="#22438B"/>
        <path fill-rule="evenodd" clip-rule="evenodd" d="M1.33312 -0.0666809L-0.467773 -0.0424142L-0.444662 1.79999L14.6504 12.0928L16.4611 12.0583L16.4273 10.2271L1.33312 -0.0666809Z" fill="white"/>
        <path fill-rule="evenodd" clip-rule="evenodd" d="M0.444065 -0.0666809L-0.444824 0.866652L15.5552 12.0667L16.4441 11.1333L0.444065 -0.0666809Z" fill="#C7152A"/>
        <path fill-rule="evenodd" clip-rule="evenodd" d="M14.6667 -0.0666809H16.4444V1.79999C16.4444 1.79999 5.99999 8.70292 1.34932 12.0928C1.29332 12.1339 -0.426675 12.0956 -0.426675 12.0956L-0.564453 10.3213L14.6667 -0.0666809Z" fill="white"/>
        <path fill-rule="evenodd" clip-rule="evenodd" d="M15.5934 -0.092804L16.4441 0.866663L0.444065 12.0667L-0.444824 11.1333L15.5934 -0.092804Z" fill="#C7152A"/>
        <path fill-rule="evenodd" clip-rule="evenodd" d="M5.7774 -0.0666809H10.2218V3.66665H16.4441V8.33332H10.2218V12.0667H5.7774V8.33332H-0.444824V3.66665H5.7774V-0.0666809Z" fill="white"/>
        <path fill-rule="evenodd" clip-rule="evenodd" d="M6.66629 -0.0666809H9.33295V4.59999H16.4441V7.39999H9.33295V12.0667H6.66629V7.39999H-0.444824V4.59999H6.66629V-0.0666809Z" fill="#C7152A"/>
        <path d="M15.5553 -0.533325H0.444173C-0.292206 -0.533325 -0.88916 0.0934762 -0.88916 0.866675V11.1333C-0.88916 11.9065 -0.292206 12.5333 0.444173 12.5333H15.5553C16.2917 12.5333 16.8886 11.9065 16.8886 11.1333V0.866675C16.8886 0.0934762 16.2917 -0.533325 15.5553 -0.533325Z" stroke="black" stroke-opacity="0.1"/>
    </g>
    </g>
    <defs>
    <clipPath id="clip0_330_10998">
        <rect width="18.6667" height="14" fill="white" transform="translate(-1.3335 -1)"/>
    </clipPath>
    </defs>
</svg>