<svg
              xmlns="http://www.w3.org/2000/svg"
              width="8"
              height="8"
              viewBox="0 0 8 8"
              fill="none"
            >
              <g clip-path="url(#clip0_330_11212)">
                <path
                  d="M3.04554 7.12506C2.52525 7.12908 2.0592 6.80396 1.88335 6.31427C1.70751 5.82458 1.86027 5.27724 2.26429 4.9494C1.97773 4.71747 1.81123 4.36852 1.81123 3.99987C1.81123 3.63121 1.97773 3.28226 2.26429 3.05033C1.86014 2.72259 1.70729 2.17522 1.88316 1.68551C2.05904 1.1958 2.52522 0.870746 3.04554 0.87498H4.95491C5.47523 0.870746 5.94141 1.1958 6.11729 1.68551C6.29316 2.17522 6.14031 2.72259 5.73616 3.05033C6.14018 3.37818 6.29294 3.92552 6.1171 4.41521C5.94126 4.90489 5.4752 5.23002 4.95491 5.22596C4.7146 5.22625 4.47944 5.1563 4.27835 5.02471V5.89971C4.27542 6.57814 3.72398 7.12623 3.04554 7.12506ZM3.03866 5.22627C2.66852 5.23212 2.37263 5.53588 2.37651 5.90606C2.38039 6.27623 2.68259 6.57372 3.05277 6.57181C3.42296 6.56988 3.72205 6.26927 3.7221 5.89908V5.22627H3.03835H3.03866ZM4.95523 3.32721C4.5841 3.32911 4.28459 3.63117 4.28585 4.0023C4.28712 4.37343 4.58867 4.67345 4.9598 4.67282C5.33094 4.6722 5.63148 4.37116 5.63148 4.00002C5.6301 3.62754 5.32739 3.32652 4.95491 3.32721H4.95523ZM3.04585 3.3272C2.80548 3.32592 2.58268 3.45298 2.46138 3.6605C2.34008 3.86803 2.33871 4.1245 2.45779 4.33332C2.57686 4.54213 2.79829 4.67155 3.03866 4.67283H3.7221V3.3272H3.04585ZM4.27835 1.42815V2.77409H4.9546C5.31632 2.77577 5.61476 2.4914 5.63054 2.13002V2.26596V2.10096C5.62899 1.72892 5.32696 1.42815 4.95491 1.42815H4.27835ZM3.04523 1.42815C2.80485 1.42815 2.58274 1.55638 2.46255 1.76455C2.34237 1.97272 2.34237 2.2292 2.46255 2.43737C2.58274 2.64553 2.80485 2.77377 3.04523 2.77377H3.7221V1.42815H3.04523Z"
                  fill="#95AAFB"></path>
              </g>
              <defs>
                <clipPath id="clip0_330_11212">
                  <rect width="7.5" height="7.5" fill="white" transform="translate(0.25 0.25)"
                  ></rect>
                </clipPath>
              </defs>
            </svg>