 <svg xmlns="http://www.w3.org/2000/svg" width="10" height="11" viewBox="0 0 10 11" fill="none">
          <path d="M5.41667 9.25H3.75V4.25H5.41667V5.08333C5.77193 4.63136 6.31068 4.36191 6.88542 4.34875C7.919 4.35449 8.753 5.19557 8.75001 6.22917V9.25H7.08333V6.4375C7.01668 5.97193 6.6174 5.62649 6.14708 5.6275C5.94137 5.634 5.74718 5.72407 5.60935 5.87693C5.47152 6.02978 5.40194 6.23221 5.41667 6.4375V9.25ZM2.91667 9.25H1.25V4.25H2.91667V9.25ZM2.08333 3.41667C1.6231 3.41667 1.25 3.04357 1.25 2.58333C1.25 2.1231 1.6231 1.75 2.08333 1.75C2.54357 1.75 2.91667 2.1231 2.91667 2.58333C2.91667 2.80435 2.82887 3.01631 2.67259 3.17259C2.51631 3.32887 2.30435 3.41667 2.08333 3.41667Z" fill="white"/>
        </svg>