<svg
                      class="inline"
                      width="16"
                      height="16"
                      viewBox="0 0 4 5"
                      fill="none"
                      xmlns="http://www.w3.org/2000/svg"
                    >
                      <title>Location</title>
                      <path
                        d="M2 4.75001C1.68423 4.48067 1.39155 4.18539 1.125 3.86726C0.725001 3.38951 0.25 2.67801 0.25 2.00001C0.249646 1.2919 0.676062 0.65336 1.33027 0.382362C1.98447 0.111364 2.73752 0.261323 3.238 0.762262C3.56712 1.08991 3.75148 1.53561 3.75001 2.00001C3.75001 2.67801 3.275 3.38951 2.875 3.86726C2.60845 4.18539 2.31577 4.48067 2 4.75001ZM2 1.25001C1.73205 1.25001 1.48446 1.39296 1.35048 1.62501C1.21651 1.85706 1.21651 2.14296 1.35048 2.37501C1.48446 2.60706 1.73205 2.75001 2 2.75001C2.41421 2.75001 2.75 2.41423 2.75 2.00001C2.75 1.5858 2.41421 1.25001 2 1.25001Z"
                        fill="#ACB1C3"
                      />
                    </svg>