 <svg xmlns="http://www.w3.org/2000/svg" width="10" height="11" viewBox="0 0 10 11" fill="none">
  <path d="M8.33126 3.28668C8.70477 3.06339 8.98425 2.71178 9.11751 2.29752C8.76653 2.50577 8.38252 2.65246 7.98209 2.73127C7.42692 2.14399 6.5473 2.00107 5.83476 2.38237C5.12221 2.76368 4.75313 3.5748 4.93376 4.36252C3.49609 4.29034 2.15666 3.61123 1.24876 2.49418C0.77494 3.31144 1.01707 4.35617 1.80209 4.88168C1.51822 4.87256 1.24064 4.7957 0.992506 4.65752C0.992506 4.66502 0.992506 4.67252 0.992506 4.68002C0.992671 5.53133 1.59266 6.26463 2.42709 6.43335C2.16378 6.50499 1.88759 6.51553 1.61959 6.46418C1.85426 7.19221 2.52524 7.69097 3.29001 7.70585C2.6566 8.20299 1.87437 8.47258 1.06917 8.47127C0.926453 8.47147 0.783844 8.46326 0.64209 8.44668C1.45975 8.97211 2.41141 9.251 3.38334 9.25002C4.73553 9.2593 6.03502 8.72623 6.99114 7.77002C7.94727 6.81382 8.48024 5.51429 8.47084 4.1621C8.47084 4.0846 8.46903 4.00752 8.46542 3.93085C8.81561 3.67777 9.11784 3.36424 9.35792 3.00502C9.03168 3.14963 8.68562 3.24457 8.33126 3.28668Z" fill="white"/>
</svg>