 <svg xmlns="http://www.w3.org/2000/svg" width="10" height="10" viewBox="0 0 10 10" fill="none">
  <path d="M3.52721 8.55627C2.68465 8.55627 1.92504 8.04872 1.60255 7.27031C1.28006 6.49191 1.45819 5.59588 2.05388 5.00001L2.93805 4.11584L3.52721 4.70501L2.64346 5.58876C2.32766 5.90457 2.20432 6.36487 2.31991 6.79627C2.43551 7.22767 2.77247 7.56463 3.20387 7.68023C3.63527 7.79582 4.09557 7.67248 4.41138 7.35668L5.29513 6.47293L5.8843 7.06251L5.00055 7.94626C4.61058 8.33815 4.08007 8.55779 3.52721 8.55627ZM3.8218 6.76751L3.23263 6.17834L6.17888 3.23209L6.76805 3.82126L3.82221 6.76709L3.8218 6.76751ZM7.06305 5.88376L6.47346 5.29459L7.35722 4.41084C7.67732 4.09598 7.80396 3.63362 7.68898 3.19958C7.574 2.76555 7.23506 2.42653 6.80105 2.31144C6.36704 2.19636 5.90465 2.32289 5.58971 2.64293L4.70555 3.52668L4.11638 2.93751L5.00055 2.05334C5.81517 1.24583 7.12929 1.24871 7.94036 2.05978C8.75144 2.87085 8.75431 4.18497 7.9468 4.99959L7.06305 5.88334V5.88376Z" fill="#E2E6EE"/>
</svg>