<svg xmlns="http://www.w3.org/2000/svg" xmlns:xlink="http://www.w3.org/1999/xlink" version="1.1" id="Layer_1" x="0px" y="0px" viewBox="0 0 166 92" style="enable-background:new 0 0 166 92;" xml:space="preserve">
<style type="text/css">
	.st0{fill-rule:evenodd;clip-rule:evenodd;fill:#001689;}
	.st1{fill-rule:evenodd;clip-rule:evenodd;fill:#0082CA;}
	.st2{fill:#0082CA;}
</style>
<g id="Layer_2_1_">
	<g id="Layer_1-2">
		<path class="st0" d="M98.2,41.4h-6.7v29.5h7.1v-9.8c1.5,1.6,3.6,2.4,5.8,2.4c4.8,0,8.7-3.9,8.7-11.4c0-3.9-1.1-6.4-2.3-8    c-1.6-2-4-3.2-6.5-3.2c-2.3,0-4.5,0.9-6.1,2.5L98.2,41.4L98.2,41.4z M106.1,52c0,1.1,0,3.4-1,5c-0.6,0.9-1.7,1.5-2.8,1.4    c-2.9,0-3.7-3-3.7-6.1s0.8-6.2,3.7-6.2C105.9,46.2,106.1,50.8,106.1,52L106.1,52z M73.3,41.4h-6.7v29.5h7.1v-9.8    c1.5,1.6,3.6,2.4,5.8,2.4c4.8,0,8.7-3.9,8.7-11.4c0-3.9-1.1-6.4-2.3-8c-1.6-2-4-3.2-6.5-3.2c-2.3,0-4.5,0.9-6.1,2.5L73.3,41.4    L73.3,41.4z M81.2,52c0,1.1,0,3.4-1,5c-0.6,0.9-1.7,1.5-2.8,1.4c-2.9,0-3.8-3-3.8-6.1c0-3.1,0.8-6.2,3.7-6.2    C81,46.2,81.1,50.8,81.2,52L81.2,52z M116.6,32.4v30.7h7.1V28.3L116.6,32.4L116.6,32.4z"/>
		<path class="st1" d="M142.3,70l-3.5-3c0.9-0.8,1.7-1.6,2.5-2.5l3,3.5C143.6,68.7,143,69.4,142.3,70z M147.5,74.4l-3.6-3.1    c0.6-0.6,1.2-1.2,1.7-1.8l3.1,3.6C148.3,73.6,147.9,74,147.5,74.4L147.5,74.4z M152.3,78.5l-2.7-2.3c0.3-0.3,0.6-0.6,0.9-0.9    l2.3,2.7C152.7,78.2,152.5,78.4,152.3,78.5L152.3,78.5z M142.1,60.7l-4-1.9l2.2-3.8l3.6,2.5C143.4,58.6,142.8,59.7,142.1,60.7    L142.1,60.7z M147.8,63.4l-4.1-2c0.6-1,1.2-2,1.8-3l3.8,2.6C148.7,61.8,148.3,62.7,147.8,63.4L147.8,63.4z M153.9,66.4l-4.3-2.1    c0.4-0.7,0.8-1.4,1.2-2.1l3.9,2.7C154.5,65.4,154.2,65.9,153.9,66.4L153.9,66.4z M159.7,69.1l-3.2-1.6c0.2-0.4,0.4-0.7,0.7-1.1    l3,2C159.9,68.7,159.8,68.9,159.7,69.1L159.7,69.1z M145.2,54.5l-4.3-0.8l1.1-4.3l4.1,1.5C146,52.1,145.6,53.4,145.2,54.5    L145.2,54.5z M151.4,55.7l-4.5-0.9c0.4-1.1,0.7-2.2,0.9-3.4l4.3,1.5C151.9,53.9,151.7,54.8,151.4,55.7L151.4,55.7z M158.1,56.9    l-4.7-0.9c0.2-0.8,0.4-1.6,0.6-2.4l4.5,1.6C158.4,55.8,158.3,56.4,158.1,56.9L158.1,56.9z M164.3,58.1l-3.5-0.7    c0.1-0.4,0.2-0.8,0.4-1.2l3.4,1.2C164.5,57.6,164.4,57.9,164.3,58.1z M146.6,47.8l-4.4,0.3v-4.4l4.4,0.3c0,0.6,0.1,1.3,0.1,1.9    S146.7,47.1,146.6,47.8z M152.9,47.3l-4.6,0.4c0-0.6,0-1.2,0-1.8s0-1.2,0-1.8l4.6,0.4c0,0.5,0,0.9,0,1.4S152.9,46.8,152.9,47.3    L152.9,47.3z M159.7,46.7l-4.8,0.4c0-0.4,0-0.8,0-1.2s0-0.8,0-1.2l4.8,0.4V46.7z M166,46.3l-3.6,0.3v-1.3l3.6,0.3V46.3L166,46.3z     M146.2,40.8l-4.1,1.5l-1.1-4.3l4.3-0.8C145.6,38.4,146,39.6,146.2,40.8L146.2,40.8z M152.1,38.8l-4.3,1.5    c-0.2-1.1-0.5-2.3-0.9-3.4l4.5-0.9C151.7,37,151.9,37.9,152.1,38.8L152.1,38.8z M158.6,36.5l-4.5,1.6c-0.2-0.8-0.4-1.6-0.6-2.4    l4.7-0.9C158.3,35.4,158.4,35.9,158.6,36.5L158.6,36.5z M164.5,34.4l-3.4,1.2c-0.1-0.4-0.2-0.8-0.4-1.2l3.5-0.7    C164.4,33.9,164.5,34.1,164.5,34.4L164.5,34.4z M144,34.3l-3.6,2.5l-2.2-3.9l4-1.9C142.8,32.1,143.5,33.1,144,34.3L144,34.3z     M149.2,30.7l-3.8,2.6c-0.5-1-1.1-2.1-1.8-3l4.1-2C148.3,29.1,148.7,29.9,149.2,30.7L149.2,30.7z M154.8,26.9l-3.9,2.7    c-0.4-0.7-0.8-1.4-1.2-2.1l4.3-2.1C154.2,25.9,154.5,26.4,154.8,26.9L154.8,26.9z M160,23.3l-3,2l-0.7-1.1l3.2-1.6    C159.8,22.9,159.9,23.1,160,23.3L160,23.3z M140.2,28.5l-2.8,3.3l-3.1-3.1l3.3-2.8C138.5,26.7,139.4,27.6,140.2,28.5L140.2,28.5z     M144.3,23.8l-3,3.5c-0.8-0.9-1.6-1.7-2.5-2.5l3.5-3C143,22.4,143.6,23.1,144.3,23.8z M148.7,18.5l-3.1,3.6    c-0.6-0.6-1.1-1.2-1.7-1.8l3.6-3.1C147.9,17.7,148.3,18.1,148.7,18.5L148.7,18.5z M152.8,13.7l-2.3,2.7c-0.3-0.3-0.6-0.6-0.9-0.9    l2.7-2.3C152.5,13.4,152.7,13.6,152.8,13.7L152.8,13.7z M135,23.9l-1.9,4l-3.8-2.2l2.5-3.6C132.9,22.6,134,23.2,135,23.9z     M137.7,18.3l-2,4.1c-1-0.6-2-1.2-3-1.8l2.6-3.8C136.1,17.3,136.9,17.8,137.7,18.3L137.7,18.3z M140.7,12.1l-2.1,4.3    c-0.7-0.4-1.4-0.9-2.1-1.2l2.7-3.9C139.7,11.5,140.2,11.8,140.7,12.1z M143.4,6.4l-1.6,3.2c-0.4-0.2-0.7-0.4-1.1-0.6l2-3    C143,6.1,143.2,6.3,143.4,6.4L143.4,6.4z M128.8,20.8l-0.8,4.3l-4.3-1.2l1.5-4.1C126.4,20.1,127.6,20.4,128.8,20.8L128.8,20.8z     M130,14.7l-0.8,4.5c-1.1-0.4-2.2-0.7-3.4-0.9l1.5-4.3C128.2,14.2,129.1,14.4,130,14.7z M131.2,8l-0.9,4.7    c-0.8-0.2-1.6-0.5-2.4-0.6l1.6-4.5C130.1,7.7,130.7,7.8,131.2,8z M132.4,1.7l-0.7,3.5l-1.3-0.3l1.2-3.4L132.4,1.7L132.4,1.7z     M102.8,25.9l3.4,2.8l-3.2,3.1l-2.9-3.3C101,27.6,101.8,26.7,102.8,25.9L102.8,25.9z M98,21.8l3.5,3c-0.9,0.8-1.7,1.6-2.5,2.5    l-3-3.5C96.7,23.1,97.3,22.4,98,21.8z M92.8,17.3l3.6,3.1c-0.6,0.6-1.2,1.1-1.7,1.8l-3.1-3.6C92,18.1,92.4,17.7,92.8,17.3z     M88,13.2l2.7,2.3c-0.3,0.3-0.6,0.6-0.9,0.9l-2.3-2.7C87.7,13.5,87.9,13.4,88,13.2z M108.6,22l2.5,3.6l-3.8,2.2l-1.9-4    C106.3,23.2,107.4,22.6,108.6,22z M105,16.9l2.6,3.8c-1,0.5-2.1,1.1-3,1.8l-2-4.1C103.4,17.7,104.2,17.3,105,16.9L105,16.9z     M101.1,11.2l2.7,3.9c-0.7,0.4-1.4,0.8-2.1,1.2l-2-4.3C100.1,11.8,100.7,11.5,101.1,11.2L101.1,11.2z M97.6,6l2,3    c-0.4,0.2-0.7,0.4-1.1,0.6l-1.5-3.2C97.1,6.3,97.3,6.1,97.6,6z M115.1,19.9l1.4,4.1l-4.3,1.2l-0.8-4.3    C112.7,20.4,113.9,20.1,115.1,19.9L115.1,19.9z M113,13.9l1.5,4.3c-1.1,0.2-2.3,0.5-3.4,0.9l-0.8-4.5    C111.2,14.4,112.1,14.1,113,13.9L113,13.9z M110.7,7.5l1.6,4.5c-0.8,0.2-1.6,0.4-2.4,0.6L109.1,8C109.7,7.8,110.2,7.7,110.7,7.5z     M108.6,1.5l1.2,3.4l-1.2,0.3l-0.7-3.5C108.2,1.7,108.4,1.6,108.6,1.5L108.6,1.5z M122,19.4l0.4,4.4h-4.4l0.4-4.4    c0.6,0,1.2-0.1,1.9-0.1S121.4,19.4,122,19.4L122,19.4z M121.6,13.2l0.4,4.6c-0.6,0-1.2-0.1-1.8-0.1s-1.2,0-1.7,0.1l0.4-4.6    c0.5,0,0.9,0,1.4,0S121.1,13.2,121.6,13.2L121.6,13.2z M121,6.4l0.4,4.8c-0.4,0-0.8,0-1.3,0s-0.8,0-1.2,0l0.4-4.8    C119.3,6.4,121,6.4,121,6.4z M120.5,0.1l0.3,3.6h-1.3l0.3-3.6H120.5L120.5,0.1z M137.5,65.9l-3.3-2.8l3.2-3.1l2.8,3.3    C139.4,64.2,138.5,65.1,137.5,65.9L137.5,65.9z"/>
		<path class="st0" d="M0,91.7h1.9v-2.9h2.7c1,0,1.9,0,2.6-0.8c0.4-0.4,0.6-1,0.5-1.6c0-0.5-0.1-1.1-0.4-1.5    c-0.6-0.9-1.7-0.9-2.5-0.9H0V91.7z M1.9,85.3h2.2c0.8,0,1.1,0,1.4,0.2c0.2,0.2,0.3,0.5,0.3,0.9c0,1-0.9,1-1.5,1H1.9V85.3z     M8.2,91.7h1.9v-2.9h2.7c1,0,1.9,0,2.6-0.8c0.4-0.4,0.5-1,0.5-1.6c0-0.5-0.1-1.1-0.4-1.5c-0.6-0.9-1.7-0.9-2.5-0.9H8.2V91.7z     M10.1,85.3h2.2c0.8,0,1.1,0,1.4,0.2c0.2,0.2,0.3,0.5,0.3,0.9c0,1-0.9,1-1.5,1h-2.4V85.3z M16.8,91.7h6.2v-1.4h-4.3v-6.3h-1.9    L16.8,91.7L16.8,91.7z M27.9,91.7h7.4v-1.4h-5.5v-1.8h5.1v-1.4h-5.1v-1.7h5.3v-1.4h-7.2L27.9,91.7L27.9,91.7z M36.2,91.7H38v-7.7    h-1.8V91.7z M46.5,89.2c0-0.6,0-1.5-0.8-2.2c-0.8-0.9-2.1-1.1-2.9-1.1c-2,0-3.7,0.9-3.7,2.9c0,0.9,0.4,1.7,1,2.3    c0.7,0.6,1.7,0.8,2.7,0.8c1.6,0,2.9-0.6,3.7-1.9l-1.9-0.2c-0.2,0.2-0.6,0.8-1.8,0.8c-0.6,0-1.2-0.2-1.6-0.6    c-0.2-0.2-0.3-0.5-0.3-0.7L46.5,89.2z M41.1,88.2c0.1-0.3,0.3-0.5,0.5-0.7c0.4-0.2,0.8-0.3,1.2-0.3c0.4,0,0.8,0.1,1.2,0.3    c0.3,0.2,0.5,0.4,0.5,0.7L41.1,88.2z M52.4,89.7c-0.1,0.2-0.3,0.4-0.5,0.5c-0.4,0.2-0.7,0.3-1.2,0.3c-1.3,0-1.8-0.9-1.8-1.6    c0-0.9,0.8-1.6,1.8-1.6c1,0,1.3,0.4,1.5,0.6l1.9-0.2c-0.2-0.4-0.5-0.8-0.9-1.1c-0.7-0.5-1.6-0.7-2.5-0.7c-1.6,0-3.7,0.8-3.7,3    c0,2,1.7,3,3.6,3c1.1,0,2.8-0.5,3.6-1.9L52.4,89.7L52.4,89.7z M55,86.1h-0.9v1.1H55v3c0,0.4,0,1,0.7,1.3c0.3,0.1,0.7,0.2,1.1,0.2    c0.4,0,0.9,0,1.3-0.1v-1.3c-0.2,0-0.4,0-0.6,0c-0.5,0-0.7-0.1-0.7-0.7v-2.5H58v-1.1h-1.2v-1.5H55L55,86.1L55,86.1z M60.6,86.1    h-1.8v5.6h1.8V89c0-0.5,0.1-0.9,0.6-1.2c0.4-0.2,0.8-0.3,1.2-0.2c0.2,0,0.3,0,0.5,0v-1.6c-1.6,0-2.1,0.7-2.3,1.1V86.1z M63.7,84.2    v1.2h1.8v-1.2H63.7z M63.7,86.1v5.6h1.8v-5.6H63.7z M71.9,89.7c-0.1,0.2-0.3,0.4-0.5,0.5c-0.4,0.2-0.7,0.3-1.1,0.3    c-1.3,0-1.8-0.9-1.8-1.6c0-0.9,0.8-1.6,1.8-1.6c1,0,1.3,0.4,1.5,0.6l1.9-0.2c-0.2-0.4-0.5-0.8-0.9-1.1c-0.7-0.5-1.6-0.7-2.5-0.7    c-1.6,0-3.7,0.8-3.7,3c0,2,1.7,3,3.6,3c1.2,0,2.8-0.5,3.6-1.9L71.9,89.7L71.9,89.7z M78.3,88.4c0,0.9,0,1.9,1.2,2.8    c0.4,0.3,0.9,0.5,1.3,0.6c0.5,0.1,1.1,0.2,1.6,0.2c1.2,0,2.7-0.3,3.5-1.2c0.7-0.7,0.7-1.5,0.7-2.3v-4.5h-1.9v4.6    c0,0.8-0.1,1-0.3,1.2c-0.3,0.4-0.8,0.6-1.5,0.6c-0.6,0.1-1.2,0-1.8-0.3c-0.7-0.4-0.9-0.9-0.9-1.6v-4.5h-1.9V88.4L78.3,88.4z     M88.2,86.1h-0.9v1.1h0.9v3c0,0.4,0,1,0.7,1.3c0.3,0.1,0.7,0.2,1.1,0.2c0.4,0,0.9,0,1.3-0.1v-1.3c-0.2,0-0.4,0-0.6,0    c-0.5,0-0.7-0.1-0.7-0.7v-2.5h1.2v-1.1H90v-1.5h-1.8L88.2,86.1L88.2,86.1z M92,84.2v1.2h1.8v-1.2H92z M92,86.1v5.6h1.8v-5.6H92z     M95.3,91.7h1.8v-7.7h-1.8L95.3,91.7L95.3,91.7z M98.6,84.2v1.2h1.8v-1.2H98.6z M98.6,86.1v5.6h1.8v-5.6H98.6z M102.1,86.1h-0.9    v1.1h0.9v3c0,0.4,0,1,0.7,1.3c0.3,0.1,0.7,0.2,1.1,0.2c0.4,0,0.9,0,1.3-0.1v-1.3c-0.2,0-0.4,0-0.6,0c-0.5,0-0.7-0.1-0.7-0.7v-2.5    h1.2v-1.1h-1.2v-1.5h-1.8L102.1,86.1L102.1,86.1z M105.9,84.2v1.2h1.8v-1.2H105.9z M105.9,86.1v5.6h1.8v-5.6H105.9z M116.2,89.2    c0-0.6,0-1.5-0.8-2.2c-0.8-0.9-2.1-1.1-2.9-1.1c-2,0-3.7,0.9-3.7,2.9c0,0.9,0.4,1.7,1,2.3c0.7,0.6,1.7,0.8,2.7,0.8    c1.6,0,2.9-0.6,3.7-1.9l-1.9-0.2c-0.2,0.2-0.6,0.8-1.8,0.8c-0.6,0-1.2-0.2-1.6-0.6c-0.2-0.2-0.3-0.5-0.3-0.7L116.2,89.2z     M110.7,88.2c0.1-0.3,0.3-0.5,0.5-0.7c0.4-0.2,0.8-0.3,1.2-0.3c0.4,0,0.8,0.1,1.2,0.3c0.3,0.2,0.5,0.4,0.5,0.7L110.7,88.2z     M116.9,89.9c0.3,1,1,1.9,3.5,1.9c1.6,0,2.3-0.4,2.7-0.8c0.3-0.3,0.5-0.8,0.5-1.2c0-0.6-0.3-1.1-0.8-1.3c-0.4-0.2-0.8-0.3-1.3-0.3    c-1.6-0.2-1.7-0.2-2.1-0.3c-0.3-0.1-0.5-0.2-0.5-0.4c0-0.4,0.5-0.6,1.3-0.6c0.9,0,1.3,0.3,1.5,0.7l1.9-0.1    c-0.1-0.5-0.4-0.9-0.8-1.1c-0.8-0.6-1.9-0.6-2.5-0.6c-1.9,0-3.2,0.6-3.2,1.9c0,1.3,1.5,1.5,2,1.6c0.4,0.1,0.9,0.1,1.3,0.1    c0.8,0.1,1.3,0.2,1.3,0.6c0,0.3-0.3,0.4-0.4,0.5c-0.3,0.1-0.6,0.1-1,0.1c-0.7,0-1.4-0.1-1.6-0.9L116.9,89.9L116.9,89.9z"/>
		<path class="st2" d="M152.2,72.2c0-0.3,0-0.5,0.1-0.7c0.1-0.2,0.2-0.5,0.3-0.7c0.1-0.2,0.3-0.4,0.4-0.6c0.3-0.3,0.7-0.6,1.2-0.7    c0.5-0.1,0.9-0.1,1.4,0c0.2,0.1,0.4,0.2,0.6,0.3c0.2,0.1,0.4,0.3,0.5,0.4c0.2,0.2,0.3,0.4,0.4,0.6c0.1,0.2,0.2,0.4,0.3,0.7    c0.1,0.2,0.1,0.5,0.1,0.7c0,0.3,0,0.5-0.1,0.8c-0.1,0.2-0.1,0.5-0.3,0.7c-0.1,0.2-0.3,0.4-0.4,0.6c-0.2,0.2-0.3,0.3-0.5,0.4    c-0.2,0.1-0.4,0.2-0.6,0.3c-0.7,0.2-1.4,0.1-2-0.3c-0.2-0.1-0.4-0.3-0.5-0.4c-0.2-0.2-0.3-0.4-0.4-0.6c-0.1-0.2-0.2-0.4-0.3-0.7    C152.2,72.7,152.2,72.5,152.2,72.2z M152.5,72.2c0,0.2,0,0.4,0.1,0.7c0.1,0.2,0.1,0.4,0.2,0.6c0.2,0.4,0.5,0.7,0.8,0.9    c0.2,0.1,0.4,0.2,0.6,0.2c0.4,0.1,0.8,0.1,1.2,0c0.2-0.1,0.4-0.1,0.6-0.2c0.2-0.1,0.3-0.2,0.5-0.4c0.1-0.1,0.3-0.3,0.4-0.5    c0.1-0.2,0.2-0.4,0.2-0.6c0.2-0.6,0.1-1.3-0.2-1.9c-0.1-0.2-0.2-0.3-0.4-0.5c-0.1-0.1-0.3-0.3-0.5-0.4c-0.2-0.1-0.4-0.2-0.6-0.2    c-0.2-0.1-0.4-0.1-0.6-0.1c-0.3,0-0.6,0.1-0.9,0.2c-0.3,0.1-0.5,0.3-0.7,0.5c-0.2,0.2-0.4,0.5-0.5,0.8    C152.6,71.5,152.5,71.9,152.5,72.2L152.5,72.2z M154.2,72.4v1.3h-0.4v-3.1h1c0.3,0,0.6,0.1,0.8,0.2c0.2,0.2,0.3,0.4,0.3,0.7    c0,0.2,0,0.3-0.1,0.4c-0.1,0.1-0.2,0.2-0.4,0.3c0.2,0,0.3,0.2,0.4,0.3c0.1,0.1,0.1,0.3,0.1,0.5v0.2c0,0.1,0,0.2,0,0.3    c0,0.1,0,0.1,0.1,0.2v0.1h-0.4c0,0,0-0.1,0-0.1c0-0.1,0-0.1,0-0.2c0-0.1,0-0.1,0-0.1V73c0-0.2,0-0.3-0.1-0.4    c-0.1-0.1-0.3-0.2-0.5-0.1L154.2,72.4z M154.2,72.1h0.7c0.1,0,0.2,0,0.3,0c0.1,0,0.2-0.1,0.2-0.1c0.1,0,0.1-0.1,0.2-0.2    c0-0.1,0.1-0.2,0.1-0.2c0-0.1,0-0.2,0-0.3c0-0.1-0.1-0.1-0.1-0.2c-0.1-0.1-0.2-0.1-0.2-0.1c-0.1,0-0.2,0-0.4,0h-0.6L154.2,72.1z"/>
	</g>
</g>
</svg>